<svg xmlns="http://www.w3.org/2000/svg" viewBox="0 0 112 126"><path fill="#b23312" fill-rule="evenodd" d="M69.5,87.5 L68.5,88.5 L68.5,94.5 L70.5,96.5 L75.5,96.5 L77.5,93.5 L77.5,89.5 L75.5,87.5 L74.5,87.5 L73.5,86.5 L71.5,86.5 L70.5,87.5 Z M72.5,87.5 L73.5,87.5 L76.5,90.5 L76.5,93.5 L74.5,95.5 L71.5,95.5 L69.5,93.5 L69.5,89.5 Z M29.5,82.5 L32.5,85.5 L32.5,86.5 L34.5,88.5 L35.5,88.5 L38.5,91.5 L39.5,91.5 L44.5,94.5 L46.5,94.5 L47.5,95.5 L49.5,95.5 L50.5,96.5 L59.5,96.5 L60.5,95.5 L61.5,95.5 L51.5,95.5 L50.5,94.5 L47.5,94.5 L46.5,93.5 L44.5,93.5 L43.5,92.5 L42.5,92.5 L40.5,90.5 L39.5,90.5 L31.5,82.5 L30.5,83.5 Z M33.5,87.5 L34.5,86.5 L35.5,87.5 L34.5,88.5 Z M32.5,85.5 L33.5,84.5 L34.5,85.5 L34.5,86.5 L33.5,87.5 L32.5,86.5 Z M31.5,84.5 L32.5,83.5 L33.5,84.5 L32.5,85.5 Z M30.5,83.5 L31.5,82.5 L32.5,83.5 L31.5,84.5 Z M25.5,71.5 L25.5,74.5 L26.5,75.5 L26.5,77.5 L28.5,80.5 L27.5,79.5 L28.5,76.5 Z M71.5,63.5 L70.5,63.5 L70.5,66.5 L69.5,67.5 L68.5,70.5 L63.5,75.5 L62.5,75.5 L59.5,77.5 L52.5,77.5 L51.5,76.5 L50.5,77.5 L51.5,77.5 L52.5,78.5 L60.5,78.5 L61.5,77.5 L64.5,76.5 L69.5,71.5 L69.5,70.5 L70.5,69.5 L70.5,65.5 L71.5,64.5 Z M64.5,74.5 L65.5,73.5 L66.5,74.5 L65.5,75.5 Z M65.5,73.5 L66.5,72.5 L67.5,73.5 L66.5,74.5 Z M66.5,72.5 L67.5,71.5 L68.5,72.5 L67.5,73.5 Z M67.5,71.5 L68.5,70.5 L69.5,71.5 L68.5,72.5 Z M88.5,59.5 L87.5,59.5 L87.5,70.5 L86.5,71.5 L86.5,73.5 L85.5,74.5 L85.5,76.5 L84.5,77.5 L84.5,78.5 L82.5,80.5 L82.5,81.5 L79.5,84.5 L79.5,85.5 L80.5,85.5 L83.5,82.5 L83.5,81.5 L86.5,76.5 L86.5,74.5 L87.5,73.5 L87.5,70.5 L88.5,69.5 Z M79.5,84.5 L80.5,83.5 L81.5,84.5 L80.5,85.5 Z M80.5,83.5 L81.5,82.5 L82.5,83.5 L81.5,84.5 Z M42.5,58.5 L42.5,61.5 L41.5,62.5 L41.5,66.5 L42.5,67.5 L42.5,69.5 L43.5,70.5 L43.5,71.5 L45.5,73.5 L45.5,74.5 L46.5,74.5 L48.5,76.5 L49.5,75.5 L45.5,71.5 L45.5,70.5 L43.5,67.5 L43.5,64.5 L42.5,63.5 L42.5,62.5 L43.5,61.5 L43.5,59.5 Z M47.5,75.5 L48.5,74.5 L49.5,75.5 L48.5,76.5 Z M46.5,74.5 L47.5,73.5 L48.5,74.5 L47.5,75.5 Z M45.5,73.5 L46.5,72.5 L47.5,73.5 L46.5,74.5 Z M44.5,72.5 L45.5,71.5 L46.5,72.5 L45.5,73.5 Z M43.5,71.5 L44.5,70.5 L45.5,71.5 L44.5,72.5 Z M22.5,56.5 L20.5,58.5 L20.5,59.5 L19.5,60.5 L19.5,62.5 L21.5,65.5 L22.5,65.5 L23.5,66.5 L25.5,66.5 L26.5,65.5 L27.5,65.5 L29.5,63.5 L29.5,59.5 L28.5,58.5 L28.5,57.5 L27.5,57.5 L26.5,56.5 Z M23.5,57.5 L25.5,57.5 L28.5,60.5 L28.5,62.5 L25.5,65.5 L24.5,65.5 L21.5,63.5 L21.5,59.5 Z M69.5,48.5 L67.5,50.5 L66.5,49.5 L64.5,51.5 L61.5,49.5 L57.5,49.5 L56.5,48.5 L55.5,48.5 L54.5,49.5 L51.5,49.5 L50.5,50.5 L47.5,51.5 L44.5,54.5 L44.5,55.5 L43.5,56.5 L44.5,57.5 L45.5,56.5 L45.5,55.5 L48.5,52.5 L49.5,52.5 L51.5,50.5 L54.5,50.5 L55.5,49.5 L59.5,49.5 L60.5,50.5 L62.5,50.5 L63.5,51.5 L63.5,53.5 L59.5,57.5 L59.5,58.5 L56.5,61.5 L56.5,62.5 L55.5,63.5 L56.5,64.5 L59.5,61.5 L59.5,60.5 L62.5,57.5 L62.5,56.5 L66.5,52.5 L66.5,51.5 Z M58.5,59.5 L59.5,58.5 L60.5,59.5 L59.5,60.5 Z M59.5,58.5 L60.5,57.5 L61.5,58.5 L60.5,59.5 Z M60.5,56.5 L61.5,55.5 L62.5,56.5 L62.5,57.5 L61.5,58.5 L60.5,57.5 Z M43.5,56.5 L44.5,55.5 L45.5,56.5 L44.5,57.5 Z M61.5,55.5 L62.5,54.5 L63.5,55.5 L62.5,56.5 Z M62.5,54.5 L63.5,53.5 L64.5,54.5 L63.5,55.5 Z M65.5,50.5 L66.5,51.5 L66.5,52.5 L64.5,54.5 L63.5,53.5 L63.5,52.5 Z M65.5,50.5 L66.5,49.5 L67.5,50.5 L66.5,51.5 Z M59.5,31.5 L58.5,30.5 L53.5,30.5 L52.5,31.5 L48.5,31.5 L47.5,32.5 L45.5,32.5 L44.5,33.5 L42.5,33.5 L41.5,34.5 L40.5,34.5 L37.5,37.5 L36.5,37.5 L30.5,43.5 L30.5,44.5 L28.5,46.5 L28.5,47.5 L26.5,50.5 L27.5,51.5 L28.5,51.5 L28.5,49.5 L29.5,48.5 L29.5,47.5 L32.5,44.5 L32.5,43.5 L37.5,38.5 L38.5,38.5 L40.5,36.5 L41.5,36.5 L42.5,35.5 L43.5,35.5 L48.5,32.5 L53.5,32.5 L54.5,31.5 Z M32.5,41.5 L33.5,40.5 L34.5,41.5 L33.5,42.5 Z M34.5,39.5 L35.5,38.5 L36.5,39.5 L35.5,40.5 Z M35.5,38.5 L36.5,37.5 L37.5,38.5 L36.5,39.5 Z M48.5,11.5 L47.5,12.5 L43.5,12.5 L42.5,13.5 L40.5,13.5 L37.5,15.5 L35.5,15.5 L34.5,16.5 L31.5,17.5 L29.5,19.5 L28.5,19.5 L25.5,22.5 L24.5,22.5 L15.5,31.5 L15.5,32.5 L13.5,34.5 L13.5,35.5 L12.5,36.5 L12.5,37.5 L11.5,38.5 L11.5,39.5 L8.5,44.5 L8.5,46.5 L7.5,47.5 L7.5,49.5 L6.5,50.5 L6.5,55.5 L5.5,56.5 L5.5,71.5 L6.5,72.5 L6.5,75.5 L7.5,76.5 L7.5,79.5 L8.5,80.5 L8.5,82.5 L9.5,83.5 L9.5,84.5 L10.5,85.5 L10.5,87.5 L12.5,89.5 L13.5,92.5 L15.5,94.5 L16.5,93.5 L18.5,95.5 L18.5,96.5 L17.5,97.5 L16.5,96.5 L20.5,100.5 L20.5,101.5 L21.5,101.5 L25.5,105.5 L26.5,105.5 L29.5,108.5 L30.5,108.5 L31.5,109.5 L32.5,109.5 L37.5,112.5 L39.5,112.5 L40.5,113.5 L42.5,113.5 L43.5,114.5 L47.5,114.5 L48.5,115.5 L64.5,115.5 L65.5,114.5 L68.5,114.5 L69.5,113.5 L71.5,113.5 L72.5,112.5 L74.5,112.5 L75.5,111.5 L78.5,110.5 L77.5,109.5 L78.5,108.5 L79.5,108.5 L80.5,109.5 L81.5,108.5 L84.5,107.5 L87.5,104.5 L88.5,104.5 L95.5,97.5 L95.5,96.5 L98.5,93.5 L98.5,92.5 L100.5,90.5 L100.5,89.5 L103.5,84.5 L103.5,82.5 L104.5,81.5 L104.5,80.5 L105.5,79.5 L105.5,77.5 L106.5,76.5 L106.5,69.5 L107.5,68.5 L107.5,56.5 L106.5,55.5 L106.5,51.5 L105.5,50.5 L105.5,47.5 L103.5,44.5 L103.5,42.5 L102.5,41.5 L101.5,38.5 L99.5,36.5 L98.5,33.5 L95.5,30.5 L95.5,29.5 L87.5,21.5 L86.5,21.5 L81.5,17.5 L80.5,17.5 L77.5,15.5 L75.5,15.5 L74.5,14.5 L71.5,15.5 L72.5,15.5 L73.5,16.5 L75.5,16.5 L80.5,19.5 L81.5,18.5 L82.5,18.5 L83.5,19.5 L82.5,20.5 L84.5,22.5 L85.5,22.5 L86.5,23.5 L86.5,24.5 L84.5,26.5 L85.5,26.5 L86.5,27.5 L84.5,29.5 L83.5,28.5 L79.5,32.5 L79.5,33.5 L76.5,36.5 L74.5,36.5 L72.5,34.5 L71.5,34.5 L70.5,33.5 L68.5,33.5 L67.5,32.5 L66.5,32.5 L65.5,33.5 L66.5,33.5 L67.5,34.5 L68.5,34.5 L69.5,35.5 L72.5,36.5 L74.5,38.5 L74.5,39.5 L70.5,43.5 L70.5,44.5 L68.5,46.5 L69.5,45.5 L70.5,46.5 L74.5,42.5 L74.5,41.5 L78.5,37.5 L78.5,36.5 L82.5,32.5 L82.5,31.5 L86.5,27.5 L86.5,26.5 L87.5,25.5 L88.5,25.5 L95.5,32.5 L96.5,31.5 L98.5,33.5 L98.5,34.5 L97.5,35.5 L96.5,34.5 L97.5,35.5 L98.5,34.5 L99.5,35.5 L99.5,36.5 L98.5,37.5 L99.5,38.5 L99.5,39.5 L102.5,44.5 L102.5,46.5 L103.5,47.5 L103.5,49.5 L104.5,50.5 L104.5,53.5 L105.5,54.5 L105.5,60.5 L106.5,61.5 L106.5,65.5 L105.5,66.5 L105.5,73.5 L104.5,74.5 L104.5,76.5 L103.5,77.5 L103.5,79.5 L102.5,80.5 L102.5,82.5 L101.5,83.5 L101.5,84.5 L100.5,85.5 L100.5,86.5 L99.5,87.5 L98.5,90.5 L96.5,92.5 L96.5,93.5 L85.5,104.5 L84.5,104.5 L82.5,106.5 L83.5,107.5 L82.5,108.5 L81.5,108.5 L80.5,107.5 L79.5,108.5 L78.5,108.5 L73.5,111.5 L71.5,111.5 L70.5,112.5 L67.5,112.5 L66.5,113.5 L60.5,113.5 L59.5,114.5 L52.5,114.5 L51.5,113.5 L46.5,113.5 L45.5,112.5 L42.5,112.5 L41.5,111.5 L39.5,111.5 L38.5,110.5 L37.5,110.5 L36.5,109.5 L35.5,109.5 L34.5,108.5 L31.5,107.5 L29.5,105.5 L28.5,105.5 L23.5,100.5 L22.5,100.5 L21.5,99.5 L21.5,98.5 L15.5,92.5 L15.5,91.5 L13.5,89.5 L13.5,88.5 L10.5,83.5 L10.5,81.5 L8.5,78.5 L8.5,74.5 L7.5,73.5 L7.5,67.5 L6.5,66.5 L6.5,58.5 L7.5,57.5 L7.5,53.5 L8.5,52.5 L8.5,49.5 L9.5,48.5 L9.5,46.5 L10.5,45.5 L10.5,44.5 L11.5,43.5 L11.5,41.5 L12.5,40.5 L11.5,39.5 L11.5,38.5 L12.5,37.5 L13.5,38.5 L14.5,37.5 L14.5,36.5 L17.5,33.5 L17.5,32.5 L27.5,22.5 L28.5,22.5 L30.5,20.5 L33.5,19.5 L35.5,17.5 L36.5,17.5 L37.5,16.5 L39.5,16.5 L40.5,15.5 L42.5,15.5 L43.5,14.5 L46.5,14.5 L47.5,13.5 L52.5,13.5 L53.5,12.5 L58.5,12.5 L59.5,13.5 L65.5,13.5 L66.5,14.5 L69.5,14.5 L70.5,13.5 L71.5,13.5 L69.5,13.5 L68.5,12.5 L65.5,12.5 L64.5,11.5 Z M70.5,112.5 L71.5,111.5 L72.5,112.5 L71.5,113.5 Z M73.5,111.5 L74.5,110.5 L75.5,111.5 L74.5,112.5 Z M37.5,111.5 L38.5,110.5 L39.5,111.5 L38.5,112.5 Z M75.5,110.5 L76.5,109.5 L77.5,110.5 L76.5,111.5 Z M34.5,110.5 L35.5,109.5 L36.5,109.5 L37.5,110.5 L36.5,111.5 L35.5,111.5 Z M32.5,109.5 L33.5,108.5 L34.5,108.5 L35.5,109.5 L34.5,110.5 L33.5,110.5 Z M79.5,108.5 L80.5,107.5 L81.5,108.5 L80.5,109.5 Z M31.5,108.5 L32.5,107.5 L33.5,108.5 L32.5,109.5 Z M29.5,107.5 L30.5,106.5 L31.5,107.5 L30.5,108.5 Z M82.5,106.5 L83.5,105.5 L84.5,106.5 L83.5,107.5 Z M27.5,106.5 L28.5,105.5 L29.5,105.5 L30.5,106.5 L29.5,107.5 L28.5,107.5 Z M84.5,105.5 L85.5,104.5 L86.5,105.5 L85.5,106.5 Z M26.5,105.5 L27.5,104.5 L28.5,105.5 L27.5,106.5 Z M85.5,104.5 L86.5,103.5 L87.5,104.5 L86.5,105.5 Z M23.5,103.5 L24.5,102.5 L25.5,102.5 L27.5,104.5 L26.5,105.5 L25.5,105.5 Z M88.5,102.5 L89.5,101.5 L90.5,102.5 L89.5,103.5 Z M22.5,102.5 L23.5,101.5 L24.5,102.5 L23.5,103.5 Z M89.5,101.5 L90.5,100.5 L91.5,101.5 L90.5,102.5 Z M21.5,101.5 L22.5,100.5 L23.5,101.5 L22.5,102.5 Z M20.5,100.5 L21.5,99.5 L22.5,100.5 L21.5,101.5 Z M19.5,99.5 L20.5,98.5 L21.5,99.5 L20.5,100.5 Z M18.5,98.5 L19.5,97.5 L20.5,98.5 L19.5,99.5 Z M17.5,97.5 L18.5,96.5 L19.5,97.5 L18.5,98.5 Z M94.5,95.5 L95.5,96.5 L95.5,97.5 L91.5,101.5 L90.5,100.5 L90.5,99.5 Z M94.5,95.5 L95.5,94.5 L96.5,95.5 L95.5,96.5 Z M95.5,94.5 L96.5,93.5 L97.5,94.5 L96.5,95.5 Z M14.5,93.5 L15.5,92.5 L16.5,93.5 L15.5,94.5 Z M96.5,92.5 L97.5,91.5 L98.5,92.5 L97.5,93.5 Z M97.5,91.5 L98.5,90.5 L99.5,91.5 L98.5,92.5 Z M13.5,91.5 L14.5,90.5 L15.5,91.5 L15.5,92.5 L14.5,93.5 L13.5,92.5 Z M12.5,90.5 L13.5,89.5 L14.5,90.5 L13.5,91.5 Z M98.5,89.5 L99.5,88.5 L100.5,89.5 L99.5,90.5 Z M11.5,88.5 L12.5,87.5 L13.5,88.5 L12.5,89.5 Z M10.5,86.5 L11.5,85.5 L12.5,86.5 L11.5,87.5 Z M9.5,84.5 L10.5,83.5 L11.5,84.5 L10.5,85.5 Z M8.5,81.5 L9.5,80.5 L10.5,81.5 L10.5,82.5 L9.5,83.5 L8.5,82.5 Z M102.5,45.5 L103.5,44.5 L104.5,45.5 L103.5,46.5 Z M69.5,45.5 L70.5,44.5 L71.5,45.5 L70.5,46.5 Z M70.5,44.5 L71.5,43.5 L72.5,44.5 L71.5,45.5 Z M101.5,42.5 L102.5,41.5 L103.5,42.5 L103.5,43.5 L102.5,44.5 L101.5,43.5 Z M9.5,42.5 L10.5,41.5 L11.5,42.5 L10.5,43.5 Z M100.5,40.5 L101.5,39.5 L102.5,40.5 L102.5,41.5 L101.5,42.5 L100.5,41.5 Z M10.5,40.5 L11.5,39.5 L12.5,40.5 L11.5,41.5 Z M99.5,38.5 L100.5,37.5 L101.5,38.5 L101.5,39.5 L100.5,40.5 L99.5,39.5 Z M98.5,37.5 L99.5,36.5 L100.5,37.5 L99.5,38.5 Z M12.5,36.5 L13.5,35.5 L14.5,36.5 L14.5,37.5 L13.5,38.5 L12.5,37.5 Z M13.5,35.5 L14.5,34.5 L15.5,35.5 L14.5,36.5 Z M78.5,34.5 L79.5,33.5 L80.5,34.5 L79.5,35.5 Z M79.5,33.5 L80.5,32.5 L81.5,33.5 L80.5,34.5 Z M14.5,33.5 L15.5,32.5 L16.5,33.5 L15.5,34.5 Z M80.5,32.5 L81.5,31.5 L82.5,32.5 L81.5,33.5 Z M15.5,32.5 L16.5,31.5 L17.5,32.5 L16.5,33.5 Z M94.5,31.5 L95.5,30.5 L96.5,31.5 L95.5,32.5 Z M93.5,30.5 L94.5,29.5 L95.5,30.5 L94.5,31.5 Z M81.5,30.5 L82.5,29.5 L83.5,30.5 L82.5,31.5 Z M92.5,29.5 L93.5,28.5 L94.5,29.5 L93.5,30.5 Z M82.5,29.5 L83.5,28.5 L84.5,29.5 L83.5,30.5 Z M22.5,25.5 L22.5,24.5 L23.5,23.5 L24.5,23.5 L25.5,24.5 L23.5,26.5 Z M24.5,23.5 L25.5,22.5 L26.5,23.5 L25.5,24.5 Z M25.5,22.5 L26.5,21.5 L27.5,22.5 L26.5,23.5 Z M83.5,21.5 L84.5,20.5 L85.5,20.5 L86.5,21.5 L85.5,22.5 L84.5,22.5 Z M26.5,21.5 L27.5,20.5 L28.5,21.5 L27.5,22.5 Z M82.5,20.5 L83.5,19.5 L84.5,20.5 L83.5,21.5 Z M72.5,15.5 L73.5,14.5 L74.5,15.5 L73.5,16.5 Z M40.5,14.5 L41.5,13.5 L42.5,14.5 L41.5,15.5 Z"/><path fill="#bb4c2e" fill-rule="evenodd" d="M83.5,106.5 L82.5,105.5 L80.5,108.5 L79.5,107.5 L80.5,108.5 L79.5,109.5 L78.5,109.5 L77.5,108.5 L79.5,110.5 L79.5,109.5 L80.5,108.5 L81.5,109.5 L80.5,108.5 L81.5,107.5 L82.5,107.5 L83.5,108.5 L82.5,107.5 Z M81.5,106.5 L82.5,105.5 L83.5,106.5 L82.5,107.5 Z M85.5,103.5 L86.5,104.5 L85.5,105.5 L86.5,106.5 L87.5,105.5 Z M85.5,105.5 L86.5,104.5 L87.5,105.5 L86.5,106.5 Z M95.5,93.5 L96.5,94.5 L91.5,99.5 L91.5,100.5 L89.5,102.5 L90.5,101.5 L91.5,102.5 L92.5,101.5 L91.5,100.5 L94.5,97.5 L94.5,96.5 L95.5,95.5 L96.5,96.5 L97.5,95.5 Z M90.5,101.5 L91.5,100.5 L92.5,101.5 L91.5,102.5 Z M95.5,95.5 L96.5,94.5 L97.5,95.5 L96.5,96.5 Z M14.5,89.5 L12.5,91.5 L13.5,90.5 L14.5,91.5 L14.5,92.5 L15.5,93.5 L14.5,94.5 L15.5,95.5 L16.5,95.5 L18.5,97.5 L17.5,98.5 L19.5,100.5 L20.5,99.5 L22.5,101.5 L21.5,102.5 L22.5,103.5 L23.5,102.5 L25.5,104.5 L26.5,104.5 L27.5,105.5 L26.5,106.5 L27.5,105.5 L30.5,107.5 L31.5,106.5 L30.5,107.5 L29.5,106.5 L28.5,106.5 L27.5,105.5 L28.5,104.5 L27.5,105.5 L25.5,103.5 L24.5,103.5 L21.5,100.5 L22.5,99.5 L21.5,100.5 L17.5,96.5 L17.5,95.5 L16.5,94.5 L17.5,93.5 L16.5,92.5 L15.5,93.5 L14.5,92.5 L14.5,91.5 L15.5,90.5 Z M21.5,102.5 L22.5,101.5 L23.5,102.5 L22.5,103.5 Z M18.5,99.5 L19.5,98.5 L20.5,99.5 L19.5,100.5 Z M17.5,98.5 L18.5,97.5 L19.5,98.5 L18.5,99.5 Z M14.5,94.5 L15.5,93.5 L16.5,94.5 L15.5,95.5 Z M15.5,93.5 L16.5,92.5 L17.5,93.5 L16.5,94.5 Z M13.5,90.5 L14.5,89.5 L15.5,90.5 L14.5,91.5 Z M28.5,78.5 L28.5,79.5 L29.5,80.5 L28.5,81.5 L29.5,81.5 L31.5,83.5 L30.5,84.5 L31.5,85.5 L32.5,84.5 L34.5,87.5 L33.5,86.5 L33.5,85.5 L31.5,83.5 L32.5,82.5 L30.5,80.5 L30.5,79.5 L29.5,78.5 Z M30.5,84.5 L31.5,83.5 L32.5,84.5 L31.5,85.5 Z M30.5,82.5 L31.5,81.5 L32.5,82.5 L31.5,83.5 Z M44.5,71.5 L43.5,72.5 L44.5,73.5 L45.5,72.5 L47.5,74.5 L46.5,75.5 L47.5,76.5 L48.5,75.5 L49.5,76.5 L49.5,77.5 L50.5,76.5 L50.5,75.5 L49.5,76.5 Z M46.5,75.5 L47.5,74.5 L48.5,75.5 L47.5,76.5 Z M43.5,72.5 L44.5,71.5 L45.5,72.5 L44.5,73.5 Z M67.5,70.5 L68.5,71.5 L65.5,74.5 L66.5,75.5 L65.5,76.5 L68.5,73.5 L67.5,72.5 L68.5,71.5 Z M65.5,74.5 L66.5,73.5 L67.5,74.5 L66.5,75.5 Z M66.5,73.5 L67.5,72.5 L68.5,73.5 L67.5,74.5 Z M71.5,44.5 L70.5,45.5 L69.5,44.5 L70.5,45.5 L68.5,47.5 L67.5,47.5 L64.5,50.5 L65.5,51.5 L63.5,54.5 L62.5,53.5 L63.5,54.5 L61.5,56.5 L61.5,57.5 L59.5,59.5 L58.5,58.5 L60.5,60.5 L59.5,59.5 L61.5,57.5 L61.5,56.5 L62.5,55.5 L63.5,56.5 L62.5,55.5 L65.5,52.5 L65.5,51.5 L66.5,50.5 L67.5,51.5 L66.5,50.5 L69.5,47.5 L70.5,47.5 L72.5,45.5 Z M64.5,50.5 L65.5,49.5 L66.5,50.5 L65.5,51.5 Z M65.5,49.5 L66.5,48.5 L67.5,49.5 L66.5,50.5 Z M69.5,46.5 L70.5,45.5 L71.5,46.5 L70.5,47.5 Z M70.5,45.5 L71.5,44.5 L72.5,45.5 L71.5,46.5 Z M36.5,38.5 L35.5,39.5 L34.5,38.5 L32.5,40.5 L34.5,42.5 L33.5,43.5 L37.5,39.5 Z M35.5,39.5 L36.5,38.5 L37.5,39.5 L36.5,40.5 Z M34.5,38.5 L36.5,40.5 L34.5,42.5 L32.5,40.5 Z M54.5,32.5 L60.5,32.5 L61.5,31.5 L63.5,31.5 L64.5,32.5 L64.5,33.5 L65.5,32.5 L65.5,31.5 L62.5,31.5 L61.5,30.5 L59.5,30.5 L60.5,31.5 L59.5,32.5 Z M93.5,29.5 L95.5,31.5 L94.5,32.5 L95.5,33.5 L96.5,33.5 L98.5,35.5 L97.5,36.5 L98.5,36.5 L99.5,37.5 L98.5,38.5 L99.5,37.5 L100.5,38.5 L100.5,39.5 L102.5,42.5 L102.5,43.5 L101.5,44.5 L103.5,41.5 L102.5,42.5 L101.5,41.5 L101.5,40.5 L102.5,39.5 L101.5,40.5 L99.5,37.5 L100.5,36.5 L99.5,37.5 L98.5,36.5 L98.5,35.5 L99.5,34.5 L98.5,35.5 L97.5,34.5 L97.5,33.5 L96.5,32.5 L97.5,31.5 L96.5,30.5 L95.5,31.5 Z M94.5,32.5 L95.5,31.5 L96.5,32.5 L95.5,33.5 Z M95.5,31.5 L96.5,30.5 L97.5,31.5 L96.5,32.5 Z M85.5,27.5 L83.5,27.5 L81.5,29.5 L83.5,31.5 L84.5,30.5 L83.5,29.5 Z M82.5,30.5 L83.5,29.5 L84.5,30.5 L83.5,31.5 Z M81.5,29.5 L82.5,28.5 L83.5,29.5 L82.5,30.5 Z M82.5,28.5 L83.5,27.5 L84.5,28.5 L83.5,29.5 Z M26.5,20.5 L25.5,21.5 L26.5,22.5 L24.5,24.5 L23.5,24.5 L23.5,25.5 L25.5,23.5 L26.5,24.5 L27.5,23.5 L26.5,22.5 L27.5,21.5 Z M25.5,23.5 L26.5,22.5 L27.5,23.5 L26.5,24.5 Z M25.5,21.5 L26.5,20.5 L27.5,21.5 L26.5,22.5 Z M73.5,13.5 L72.5,13.5 L69.5,15.5 L70.5,15.5 L71.5,14.5 L72.5,14.5 L73.5,15.5 L72.5,14.5 Z"/></svg>
