<svg xmlns="http://www.w3.org/2000/svg" viewBox="0 0 121 126"><path fill="#ae2f10" fill-rule="evenodd" d="M57.5,95.5 L57.5,109.5 L56.5,110.5 L57.5,111.5 L58.5,111.5 L58.5,95.5 Z M83.5,85.5 L83.5,87.5 L92.5,96.5 L93.5,96.5 L93.5,94.5 L84.5,85.5 Z M91.5,95.5 L92.5,94.5 L93.5,95.5 L92.5,96.5 Z M83.5,86.5 L84.5,85.5 L92.5,93.5 L92.5,94.5 L91.5,95.5 L83.5,87.5 Z M32.5,85.5 L31.5,85.5 L21.5,95.5 L22.5,96.5 L23.5,96.5 L27.5,92.5 L25.5,94.5 L24.5,94.5 L23.5,93.5 L30.5,86.5 L31.5,87.5 L31.5,88.5 L29.5,90.5 L32.5,87.5 Z M23.5,93.5 L24.5,94.5 L24.5,95.5 L23.5,96.5 L22.5,96.5 L21.5,95.5 Z M30.5,86.5 L31.5,85.5 L32.5,86.5 L31.5,87.5 Z M35.5,68.5 L35.5,69.5 L36.5,70.5 L37.5,73.5 L44.5,80.5 L45.5,80.5 L48.5,82.5 L50.5,82.5 L51.5,83.5 L54.5,83.5 L55.5,82.5 L59.5,82.5 L60.5,83.5 L64.5,83.5 L65.5,82.5 L66.5,82.5 L65.5,82.5 L64.5,81.5 L69.5,78.5 L64.5,81.5 L61.5,81.5 L60.5,82.5 L55.5,82.5 L54.5,83.5 L52.5,83.5 L51.5,82.5 L52.5,81.5 L53.5,81.5 L51.5,81.5 L50.5,80.5 L48.5,80.5 L46.5,78.5 L45.5,78.5 L39.5,72.5 L39.5,71.5 L37.5,69.5 L37.5,68.5 L37.5,69.5 L36.5,70.5 L35.5,69.5 Z M38.5,73.5 L39.5,72.5 L45.5,78.5 L44.5,79.5 L43.5,79.5 L38.5,74.5 Z M37.5,72.5 L38.5,71.5 L39.5,72.5 L38.5,73.5 Z M36.5,70.5 L37.5,69.5 L38.5,70.5 L38.5,71.5 L37.5,72.5 L36.5,71.5 Z M94.5,58.5 L94.5,60.5 L108.5,60.5 L108.5,58.5 Z M98.5,59.5 L99.5,58.5 L107.5,58.5 L108.5,59.5 L107.5,60.5 L99.5,60.5 Z M7.5,60.5 L20.5,60.5 L18.5,60.5 L17.5,59.5 L18.5,58.5 L21.5,58.5 L7.5,58.5 Z M11.5,59.5 L12.5,58.5 L14.5,58.5 L15.5,59.5 L14.5,60.5 L12.5,60.5 Z M7.5,59.5 L8.5,58.5 L9.5,59.5 L8.5,60.5 Z M79.5,48.5 L78.5,49.5 L77.5,48.5 L79.5,51.5 L79.5,54.5 L80.5,55.5 L80.5,63.5 L79.5,64.5 L79.5,66.5 L78.5,67.5 L78.5,69.5 L76.5,71.5 L76.5,72.5 L71.5,77.5 L75.5,73.5 L76.5,74.5 L76.5,75.5 L72.5,79.5 L71.5,79.5 L70.5,80.5 L71.5,79.5 L72.5,79.5 L77.5,74.5 L77.5,73.5 L79.5,71.5 L79.5,69.5 L80.5,68.5 L80.5,66.5 L81.5,65.5 L81.5,53.5 L80.5,52.5 L80.5,50.5 L79.5,49.5 Z M75.5,73.5 L76.5,72.5 L77.5,73.5 L76.5,74.5 Z M76.5,72.5 L77.5,71.5 L78.5,72.5 L77.5,73.5 Z M78.5,50.5 L79.5,49.5 L80.5,50.5 L79.5,51.5 Z M61.5,35.5 L63.5,35.5 L64.5,36.5 L63.5,37.5 L64.5,37.5 L65.5,38.5 L67.5,38.5 L69.5,40.5 L70.5,40.5 L76.5,46.5 L77.5,45.5 L78.5,46.5 L77.5,45.5 L76.5,46.5 L70.5,40.5 L71.5,39.5 L72.5,39.5 L76.5,43.5 L72.5,39.5 L71.5,39.5 L69.5,37.5 L68.5,37.5 L67.5,36.5 L64.5,36.5 L63.5,35.5 Z M69.5,39.5 L70.5,38.5 L71.5,39.5 L70.5,40.5 Z M65.5,37.5 L66.5,36.5 L67.5,37.5 L66.5,38.5 Z M55.5,35.5 L51.5,35.5 L50.5,36.5 L48.5,36.5 L45.5,38.5 L46.5,37.5 L47.5,37.5 L48.5,38.5 L47.5,39.5 L48.5,38.5 L50.5,38.5 L51.5,37.5 L53.5,37.5 L54.5,36.5 L55.5,36.5 Z M47.5,37.5 L48.5,36.5 L49.5,36.5 L50.5,37.5 L49.5,38.5 L48.5,38.5 Z M51.5,36.5 L52.5,35.5 L53.5,35.5 L54.5,36.5 L53.5,37.5 L52.5,37.5 Z M93.5,22.5 L92.5,22.5 L83.5,31.5 L83.5,33.5 L84.5,33.5 L93.5,24.5 Z M88.5,26.5 L89.5,27.5 L89.5,28.5 L84.5,33.5 L83.5,32.5 L83.5,31.5 Z M88.5,26.5 L89.5,25.5 L90.5,26.5 L89.5,27.5 Z M89.5,25.5 L90.5,24.5 L91.5,25.5 L90.5,26.5 Z M90.5,24.5 L91.5,23.5 L92.5,24.5 L91.5,25.5 Z M91.5,23.5 L92.5,22.5 L93.5,23.5 L92.5,24.5 Z M21.5,22.5 L21.5,23.5 L31.5,33.5 L32.5,33.5 L32.5,31.5 L23.5,22.5 Z M21.5,23.5 L22.5,22.5 L23.5,22.5 L31.5,30.5 L31.5,31.5 L30.5,32.5 Z M57.5,7.5 L58.5,8.5 L57.5,9.5 L57.5,18.5 L58.5,19.5 L58.5,20.5 L58.5,7.5 Z"/><path fill="#ba4324" fill-rule="evenodd" d="M84.5,86.5 L84.5,87.5 L92.5,95.5 L91.5,94.5 L91.5,93.5 Z M30.5,85.5 L31.5,86.5 L21.5,96.5 L22.5,97.5 L21.5,96.5 L22.5,95.5 L23.5,95.5 L23.5,94.5 L24.5,93.5 L25.5,93.5 L27.5,91.5 L28.5,91.5 L28.5,90.5 L30.5,88.5 L30.5,87.5 L31.5,86.5 Z M52.5,82.5 L54.5,82.5 L56.5,84.5 L60.5,84.5 L59.5,83.5 L55.5,83.5 L54.5,82.5 L55.5,81.5 Z M78.5,73.5 L77.5,72.5 L71.5,78.5 L70.5,77.5 L70.5,78.5 L68.5,80.5 L67.5,80.5 L66.5,81.5 L65.5,81.5 L64.5,80.5 L67.5,82.5 L67.5,81.5 L68.5,80.5 L69.5,81.5 L69.5,80.5 L70.5,79.5 L71.5,80.5 L70.5,79.5 L71.5,78.5 L72.5,78.5 L75.5,75.5 L75.5,74.5 L77.5,72.5 Z M71.5,38.5 L70.5,39.5 L71.5,40.5 L70.5,41.5 L71.5,40.5 L77.5,46.5 L76.5,47.5 L77.5,47.5 L78.5,48.5 L77.5,49.5 L79.5,47.5 L78.5,47.5 L76.5,45.5 L77.5,44.5 L76.5,44.5 L72.5,40.5 L71.5,40.5 L70.5,39.5 Z M49.5,37.5 L48.5,37.5 L45.5,39.5 L44.5,38.5 L44.5,39.5 L41.5,42.5 L40.5,41.5 L41.5,42.5 L38.5,45.5 L37.5,45.5 L37.5,46.5 L34.5,51.5 L34.5,52.5 L35.5,53.5 L35.5,55.5 L34.5,56.5 L33.5,56.5 L33.5,57.5 L34.5,58.5 L34.5,60.5 L33.5,61.5 L33.5,62.5 L34.5,62.5 L35.5,63.5 L35.5,65.5 L34.5,66.5 L34.5,67.5 L35.5,67.5 L36.5,68.5 L37.5,71.5 L39.5,73.5 L39.5,74.5 L40.5,75.5 L39.5,76.5 L41.5,78.5 L42.5,77.5 L43.5,78.5 L44.5,78.5 L39.5,73.5 L40.5,72.5 L39.5,73.5 L37.5,71.5 L37.5,70.5 L38.5,69.5 L37.5,70.5 L36.5,69.5 L36.5,68.5 L37.5,67.5 L36.5,66.5 L36.5,63.5 L35.5,63.5 L34.5,62.5 L34.5,57.5 L36.5,55.5 L36.5,52.5 L38.5,49.5 L37.5,48.5 L38.5,47.5 L39.5,47.5 L38.5,46.5 L40.5,44.5 L40.5,43.5 L41.5,42.5 L42.5,42.5 L43.5,41.5 L46.5,40.5 L46.5,39.5 L47.5,38.5 L48.5,39.5 L47.5,38.5 L48.5,37.5 Z M40.5,77.5 L41.5,76.5 L42.5,77.5 L41.5,78.5 Z M39.5,76.5 L40.5,75.5 L41.5,76.5 L40.5,77.5 Z M52.5,36.5 L53.5,36.5 L54.5,37.5 L55.5,37.5 L56.5,36.5 L59.5,36.5 L60.5,37.5 L62.5,37.5 L64.5,35.5 L63.5,36.5 L61.5,36.5 L60.5,35.5 L57.5,34.5 L55.5,37.5 Z M22.5,23.5 L30.5,31.5 L30.5,30.5 L23.5,23.5 Z M91.5,22.5 L90.5,23.5 L91.5,24.5 L84.5,31.5 L84.5,32.5 L92.5,23.5 Z M90.5,23.5 L91.5,22.5 L92.5,23.5 L91.5,24.5 Z M56.5,8.5 L56.5,22.5 L57.5,23.5 L58.5,23.5 L57.5,23.5 L56.5,22.5 L57.5,21.5 L58.5,21.5 L56.5,18.5 L56.5,9.5 L57.5,8.5 Z"/></svg>
