<svg xmlns="http://www.w3.org/2000/svg" viewBox="0 0 230 254"><path fill="#92b5e3" fill-rule="evenodd" d="M204.5,128.5 L204.5,129.5 L203.5,130.5 L203.5,132.5 L205.5,134.5 L209.5,134.5 L209.5,133.5 L210.5,132.5 L210.5,130.5 L209.5,129.5 L209.5,128.5 Z M167.5,62.5 L167.5,65.5 L166.5,66.5 L166.5,68.5 L161.5,73.5 L160.5,73.5 L157.5,75.5 L154.5,75.5 L157.5,75.5 L158.5,76.5 L161.5,77.5 L166.5,82.5 L166.5,84.5 L167.5,85.5 L167.5,88.5 L167.5,87.5 L168.5,86.5 L168.5,84.5 L169.5,83.5 L170.5,80.5 L175.5,76.5 L176.5,76.5 L177.5,75.5 L180.5,75.5 L177.5,75.5 L176.5,74.5 L175.5,74.5 L173.5,72.5 L172.5,72.5 L170.5,70.5 L170.5,69.5 L168.5,66.5 L168.5,64.5 L167.5,63.5 Z M190.5,40.5 L190.5,41.5 L189.5,42.5 L189.5,44.5 L190.5,45.5 L190.5,46.5 L194.5,46.5 L196.5,44.5 L196.5,42.5 L194.5,40.5 Z M106.5,13.5 L105.5,14.5 L101.5,14.5 L100.5,15.5 L97.5,15.5 L96.5,16.5 L93.5,16.5 L92.5,17.5 L90.5,17.5 L89.5,18.5 L87.5,18.5 L86.5,19.5 L84.5,19.5 L83.5,20.5 L82.5,20.5 L81.5,21.5 L79.5,21.5 L78.5,22.5 L77.5,22.5 L76.5,23.5 L75.5,23.5 L74.5,24.5 L71.5,25.5 L69.5,27.5 L66.5,28.5 L64.5,30.5 L63.5,30.5 L60.5,33.5 L59.5,33.5 L56.5,36.5 L55.5,36.5 L40.5,51.5 L40.5,52.5 L37.5,55.5 L37.5,56.5 L35.5,58.5 L35.5,59.5 L31.5,64.5 L31.5,65.5 L30.5,66.5 L30.5,67.5 L29.5,68.5 L29.5,69.5 L28.5,70.5 L28.5,71.5 L27.5,72.5 L27.5,73.5 L24.5,78.5 L24.5,80.5 L22.5,83.5 L22.5,85.5 L21.5,86.5 L21.5,88.5 L20.5,89.5 L20.5,92.5 L19.5,93.5 L19.5,96.5 L18.5,97.5 L18.5,100.5 L17.5,101.5 L17.5,106.5 L16.5,107.5 L16.5,116.5 L15.5,117.5 L15.5,128.5 L16.5,129.5 L16.5,139.5 L17.5,140.5 L17.5,145.5 L18.5,146.5 L18.5,149.5 L19.5,150.5 L19.5,153.5 L20.5,154.5 L20.5,157.5 L21.5,158.5 L21.5,160.5 L22.5,161.5 L22.5,163.5 L23.5,164.5 L23.5,166.5 L24.5,167.5 L24.5,168.5 L25.5,169.5 L25.5,170.5 L26.5,171.5 L26.5,172.5 L27.5,173.5 L27.5,174.5 L28.5,175.5 L28.5,176.5 L29.5,177.5 L29.5,178.5 L30.5,179.5 L31.5,182.5 L33.5,184.5 L34.5,187.5 L36.5,189.5 L36.5,190.5 L39.5,193.5 L39.5,194.5 L43.5,198.5 L43.5,199.5 L54.5,210.5 L55.5,210.5 L60.5,215.5 L61.5,215.5 L64.5,218.5 L65.5,218.5 L70.5,222.5 L71.5,222.5 L72.5,223.5 L73.5,223.5 L74.5,224.5 L75.5,224.5 L76.5,225.5 L77.5,225.5 L78.5,226.5 L79.5,226.5 L80.5,227.5 L81.5,227.5 L86.5,230.5 L88.5,230.5 L91.5,232.5 L93.5,232.5 L94.5,233.5 L97.5,233.5 L98.5,234.5 L100.5,234.5 L101.5,235.5 L105.5,235.5 L106.5,236.5 L110.5,236.5 L111.5,237.5 L120.5,237.5 L121.5,238.5 L133.5,238.5 L134.5,237.5 L142.5,237.5 L143.5,236.5 L148.5,236.5 L149.5,235.5 L152.5,235.5 L153.5,234.5 L156.5,234.5 L157.5,233.5 L160.5,233.5 L163.5,231.5 L165.5,231.5 L168.5,229.5 L170.5,229.5 L171.5,228.5 L172.5,228.5 L173.5,227.5 L174.5,227.5 L175.5,226.5 L176.5,226.5 L177.5,225.5 L178.5,225.5 L179.5,224.5 L182.5,223.5 L184.5,221.5 L187.5,220.5 L189.5,218.5 L190.5,218.5 L193.5,215.5 L194.5,215.5 L199.5,210.5 L200.5,210.5 L209.5,201.5 L209.5,200.5 L213.5,196.5 L213.5,195.5 L216.5,192.5 L216.5,191.5 L220.5,186.5 L220.5,185.5 L221.5,184.5 L221.5,183.5 L222.5,182.5 L222.5,181.5 L223.5,180.5 L223.5,179.5 L226.5,174.5 L225.5,175.5 L224.5,175.5 L219.5,178.5 L217.5,178.5 L216.5,179.5 L214.5,179.5 L213.5,180.5 L211.5,180.5 L210.5,181.5 L207.5,181.5 L206.5,182.5 L203.5,182.5 L202.5,183.5 L198.5,183.5 L197.5,184.5 L190.5,184.5 L189.5,185.5 L173.5,185.5 L172.5,184.5 L165.5,184.5 L164.5,183.5 L160.5,183.5 L159.5,182.5 L156.5,182.5 L155.5,181.5 L152.5,181.5 L151.5,180.5 L149.5,180.5 L148.5,179.5 L146.5,179.5 L143.5,177.5 L141.5,177.5 L140.5,176.5 L139.5,176.5 L138.5,175.5 L137.5,175.5 L136.5,174.5 L135.5,174.5 L134.5,173.5 L133.5,173.5 L132.5,172.5 L129.5,171.5 L127.5,169.5 L126.5,169.5 L124.5,167.5 L123.5,167.5 L120.5,164.5 L119.5,164.5 L112.5,157.5 L111.5,157.5 L106.5,152.5 L106.5,151.5 L101.5,146.5 L101.5,145.5 L98.5,142.5 L98.5,141.5 L96.5,139.5 L96.5,138.5 L92.5,133.5 L92.5,132.5 L91.5,131.5 L91.5,130.5 L90.5,129.5 L90.5,128.5 L89.5,127.5 L89.5,126.5 L86.5,121.5 L86.5,119.5 L85.5,118.5 L85.5,116.5 L83.5,113.5 L83.5,110.5 L82.5,109.5 L82.5,106.5 L81.5,105.5 L81.5,101.5 L80.5,100.5 L80.5,95.5 L79.5,94.5 L79.5,72.5 L80.5,71.5 L80.5,66.5 L81.5,65.5 L81.5,61.5 L82.5,60.5 L82.5,57.5 L83.5,56.5 L83.5,54.5 L84.5,53.5 L84.5,51.5 L85.5,50.5 L85.5,48.5 L86.5,47.5 L86.5,45.5 L87.5,44.5 L87.5,43.5 L88.5,42.5 L88.5,41.5 L89.5,40.5 L89.5,39.5 L90.5,38.5 L91.5,35.5 L93.5,33.5 L93.5,32.5 L94.5,31.5 L94.5,30.5 L96.5,28.5 L96.5,27.5 L99.5,24.5 L99.5,23.5 L109.5,13.5 Z"/><path fill="#03040d" fill-rule="evenodd" d="M187.5,182.5 L188.5,183.5 L189.5,183.5 L190.5,182.5 L193.5,182.5 Z M90.5,121.5 L89.5,122.5 L89.5,123.5 L91.5,126.5 L90.5,125.5 L91.5,124.5 Z M89.5,123.5 L90.5,122.5 L91.5,123.5 L90.5,124.5 Z M84.5,99.5 L84.5,100.5 L83.5,101.5 L83.5,103.5 L84.5,102.5 Z M83.5,93.5 L83.5,94.5 L82.5,95.5 L82.5,96.5 L83.5,97.5 Z M83.5,69.5 L82.5,69.5 L82.5,72.5 L81.5,73.5 L82.5,72.5 L83.5,73.5 Z M90.5,42.5 L89.5,43.5 L89.5,45.5 L88.5,46.5 L88.5,48.5 L87.5,49.5 L87.5,51.5 L86.5,52.5 L86.5,54.5 L84.5,57.5 L84.5,61.5 L83.5,62.5 L83.5,65.5 L83.5,62.5 L84.5,61.5 L84.5,59.5 L85.5,58.5 L85.5,55.5 L86.5,54.5 L86.5,52.5 L87.5,51.5 L87.5,49.5 L88.5,48.5 L88.5,46.5 L89.5,45.5 L89.5,43.5 Z M97.5,13.5 L99.5,13.5 L100.5,12.5 L104.5,12.5 L100.5,12.5 L99.5,11.5 L100.5,10.5 L101.5,10.5 L100.5,9.5 L99.5,9.5 L98.5,10.5 L98.5,11.5 L99.5,11.5 L100.5,12.5 L99.5,13.5 Z"/></svg>
