<svg xmlns="http://www.w3.org/2000/svg" viewBox="0 0 139 144"><path fill="#f7c355" fill-rule="evenodd" d="M73.5,34.5 L72.5,34.5 L67.5,31.5 L65.5,31.5 L64.5,30.5 L51.5,30.5 L50.5,31.5 L48.5,31.5 L47.5,32.5 L46.5,32.5 L45.5,33.5 L42.5,34.5 L40.5,36.5 L39.5,36.5 L35.5,40.5 L35.5,41.5 L33.5,43.5 L33.5,44.5 L31.5,47.5 L31.5,49.5 L30.5,50.5 L30.5,53.5 L29.5,54.5 L29.5,65.5 L30.5,66.5 L30.5,68.5 L31.5,69.5 L31.5,71.5 L32.5,72.5 L32.5,73.5 L35.5,76.5 L35.5,77.5 L37.5,79.5 L38.5,79.5 L39.5,78.5 L39.5,77.5 L45.5,71.5 L46.5,71.5 L48.5,69.5 L50.5,69.5 L51.5,68.5 L59.5,68.5 L59.5,67.5 L60.5,66.5 L61.5,63.5 L65.5,59.5 L65.5,58.5 L66.5,57.5 L67.5,57.5 L70.5,54.5 L71.5,54.5 L73.5,52.5 L75.5,52.5 L76.5,51.5 L79.5,51.5 L80.5,50.5 L84.5,50.5 L84.5,48.5 L83.5,47.5 L83.5,46.5 L82.5,45.5 L81.5,42.5 Z"/><path fill="#cdd8cc" fill-rule="evenodd" d="M120.5,90.5 L119.5,89.5 L119.5,87.5 L118.5,86.5 L118.5,85.5 L114.5,80.5 L113.5,80.5 L110.5,78.5 L107.5,78.5 L106.5,77.5 L106.5,73.5 L105.5,72.5 L105.5,69.5 L104.5,68.5 L104.5,67.5 L103.5,66.5 L102.5,63.5 L97.5,58.5 L96.5,58.5 L93.5,56.5 L91.5,56.5 L90.5,55.5 L87.5,55.5 L86.5,54.5 L80.5,54.5 L77.5,56.5 L75.5,56.5 L74.5,57.5 L71.5,58.5 L65.5,64.5 L65.5,65.5 L63.5,68.5 L63.5,70.5 L61.5,73.5 L60.5,73.5 L59.5,72.5 L53.5,72.5 L52.5,73.5 L49.5,73.5 L48.5,74.5 L47.5,74.5 L43.5,78.5 L43.5,79.5 L41.5,82.5 L41.5,84.5 L40.5,85.5 L40.5,86.5 L38.5,88.5 L35.5,88.5 L34.5,89.5 L33.5,89.5 L31.5,91.5 L31.5,92.5 L29.5,94.5 L29.5,98.5 L28.5,99.5 L29.5,100.5 L29.5,103.5 L30.5,104.5 L30.5,105.5 L33.5,108.5 L34.5,108.5 L35.5,109.5 L37.5,109.5 L38.5,110.5 L106.5,110.5 L107.5,109.5 L110.5,109.5 L112.5,107.5 L113.5,107.5 L117.5,103.5 L117.5,102.5 L120.5,97.5 Z"/></svg>
