<svg xmlns="http://www.w3.org/2000/svg" viewBox="0 0 139 145"><path fill="#0b100a" fill-rule="evenodd" d="M68.5,106.5 L67.5,107.5 L67.5,120.5 L71.5,120.5 L71.5,106.5 Z M92.5,96.5 L90.5,98.5 L90.5,99.5 L92.5,101.5 L91.5,102.5 L93.5,104.5 L94.5,103.5 L96.5,105.5 L95.5,106.5 L96.5,105.5 L100.5,109.5 L102.5,107.5 L102.5,106.5 L96.5,100.5 L96.5,99.5 L93.5,96.5 Z M92.5,103.5 L93.5,102.5 L94.5,103.5 L93.5,104.5 Z M91.5,102.5 L92.5,101.5 L93.5,102.5 L92.5,103.5 Z M46.5,96.5 L44.5,98.5 L43.5,98.5 L42.5,99.5 L42.5,100.5 L36.5,106.5 L36.5,107.5 L38.5,109.5 L48.5,99.5 L48.5,98.5 Z M115.5,74.5 L113.5,72.5 L109.5,72.5 L108.5,73.5 L101.5,73.5 L100.5,74.5 L100.5,76.5 L114.5,76.5 L115.5,75.5 Z M23.5,74.5 L23.5,75.5 L24.5,76.5 L38.5,76.5 L38.5,73.5 L37.5,73.5 L36.5,72.5 L35.5,73.5 L34.5,73.5 L33.5,72.5 L32.5,73.5 L31.5,73.5 L30.5,72.5 L29.5,73.5 L24.5,73.5 Z M65.5,50.5 L64.5,51.5 L61.5,51.5 L60.5,52.5 L57.5,53.5 L55.5,55.5 L54.5,55.5 L51.5,58.5 L51.5,59.5 L49.5,61.5 L49.5,62.5 L46.5,67.5 L46.5,69.5 L45.5,70.5 L45.5,79.5 L46.5,80.5 L46.5,82.5 L47.5,83.5 L47.5,84.5 L48.5,85.5 L49.5,88.5 L52.5,91.5 L52.5,92.5 L53.5,92.5 L56.5,95.5 L57.5,95.5 L58.5,96.5 L61.5,97.5 L62.5,98.5 L61.5,99.5 L60.5,99.5 L61.5,99.5 L62.5,98.5 L66.5,98.5 L67.5,99.5 L71.5,99.5 L72.5,98.5 L76.5,98.5 L77.5,97.5 L78.5,97.5 L79.5,96.5 L82.5,95.5 L84.5,93.5 L85.5,93.5 L88.5,90.5 L88.5,89.5 L90.5,87.5 L90.5,86.5 L91.5,85.5 L91.5,83.5 L92.5,82.5 L92.5,80.5 L93.5,79.5 L93.5,70.5 L92.5,69.5 L92.5,67.5 L91.5,66.5 L91.5,64.5 L90.5,63.5 L90.5,62.5 L88.5,60.5 L88.5,59.5 L84.5,55.5 L83.5,55.5 L81.5,53.5 L80.5,53.5 L77.5,51.5 L75.5,51.5 L74.5,50.5 Z M84.5,63.5 L85.5,62.5 L86.5,63.5 L86.5,64.5 L85.5,65.5 L84.5,64.5 Z M83.5,62.5 L84.5,61.5 L85.5,62.5 L84.5,63.5 Z M82.5,61.5 L83.5,60.5 L84.5,61.5 L83.5,62.5 Z M81.5,60.5 L82.5,59.5 L83.5,60.5 L82.5,61.5 Z M80.5,59.5 L81.5,58.5 L82.5,59.5 L81.5,60.5 Z M65.5,54.5 L73.5,54.5 L74.5,55.5 L76.5,55.5 L77.5,56.5 L78.5,56.5 L79.5,57.5 L78.5,58.5 L79.5,57.5 L80.5,57.5 L81.5,58.5 L80.5,59.5 L84.5,63.5 L85.5,66.5 L85.5,65.5 L86.5,64.5 L87.5,65.5 L87.5,66.5 L88.5,67.5 L88.5,69.5 L89.5,70.5 L89.5,79.5 L88.5,80.5 L88.5,82.5 L87.5,83.5 L87.5,84.5 L86.5,85.5 L85.5,84.5 L85.5,83.5 L86.5,86.5 L80.5,92.5 L79.5,92.5 L78.5,93.5 L76.5,93.5 L73.5,95.5 L65.5,95.5 L64.5,94.5 L62.5,94.5 L61.5,93.5 L58.5,92.5 L52.5,86.5 L52.5,85.5 L50.5,82.5 L50.5,80.5 L49.5,79.5 L49.5,70.5 L50.5,69.5 L50.5,67.5 L51.5,66.5 L52.5,63.5 L58.5,57.5 L59.5,57.5 L60.5,58.5 L59.5,57.5 L60.5,56.5 L61.5,56.5 L62.5,55.5 L64.5,55.5 Z M101.5,41.5 L99.5,41.5 L90.5,50.5 L90.5,51.5 L92.5,53.5 L93.5,53.5 L96.5,50.5 L97.5,51.5 L99.5,49.5 L98.5,48.5 L102.5,44.5 L102.5,42.5 Z M96.5,50.5 L97.5,49.5 L98.5,50.5 L97.5,51.5 Z M97.5,49.5 L98.5,48.5 L99.5,49.5 L98.5,50.5 Z M37.5,41.5 L36.5,42.5 L36.5,44.5 L37.5,44.5 L46.5,53.5 L48.5,51.5 L48.5,50.5 L39.5,41.5 Z M68.5,28.5 L68.5,29.5 L67.5,30.5 L67.5,39.5 L68.5,40.5 L68.5,43.5 L71.5,43.5 L71.5,29.5 L70.5,28.5 Z"/></svg>
